Coordinates
version=1
nRows=6
nColumns=46
inDegrees=yes

Units are S.I. units (second, meters, Newtons, ...)
Angles are in degrees.

endheader
time	pelvis_tilt	pelvis_list	pelvis_rotation	pelvis_tx	pelvis_ty	pelvis_tz	bb_angle	bb_tx	bb_ty	bb_tz	hip_flexion_r	hip_adduction_r	hip_rotation_r	knee_angle_r	knee_angle_r_beta	ankle_angle_r	subtalar_angle_r	mtp_angle_r	crank_angle_r	hip_flexion_l	hip_adduction_l	hip_rotation_l	knee_angle_l	knee_angle_l_beta	ankle_angle_l	subtalar_angle_l	mtp_angle_l	crank_angle_l	lumbar_extension	lumbar_bending	lumbar_rotation	arm_flex_r	arm_add_r	arm_rot_r	elbow_flex_r	pro_sup_r	wrist_flex_r	wrist_dev_r	arm_flex_l	arm_add_l	arm_rot_l	elbow_flex_l	pro_sup_l	wrist_flex_l	wrist_dev_l
      5.00500000	    -34.78703494	     -1.94496195	      6.68191642	      0.29105010	      1.02890453	     -0.19483299	      0.00000000	      0.50000000	      0.00000000	      0.25000000	     56.07885421	     -8.90526658	     -5.01537844	     66.76168923	      1.16521129	    -37.32006890	     -4.76567727	      0.00000000	      0.00000000	     86.19949616	     -2.62259015	      4.58403975	     79.57534939	      1.38885185	      4.48866545	      1.48766434	      0.00000000	      0.00000000	    -36.13252515	      9.29341657	    -20.05644459	     71.92985918	      6.47798756	     66.64766720	     28.78230271	     52.36903056	      0.00000000	      0.00000000	     39.54042147	    -53.74391712	     32.55698603	     92.06029680	     52.40903257	      0.00000000	      0.00000000
      5.01000000	    -34.74561762	     -1.69796540	      6.06935617	      0.29117366	      1.02891070	     -0.19558942	      0.00000000	      0.50000000	      0.00000000	      0.25000000	     57.35420175	     -8.83666916	     -4.21700899	     69.31264772	      1.20973392	    -37.02328984	     -4.80172688	      0.00000000	      0.00000000	     83.91230675	     -2.87286653	      4.18327651	     76.44451390	      1.33420846	      5.10591326	      0.68119421	      0.00000000	      0.00000000	    -36.18586956	      8.93277113	    -19.54889050	     72.60363336	      5.88180127	     69.32822030	     28.66213165	     53.02767630	      0.00000000	      0.00000000	     39.11905312	    -52.19183957	     31.18267939	     91.42791214	     52.01460488	      0.00000000	      0.00000000
      5.01500000	    -34.66404044	     -1.53220422	      5.36726986	      0.29157618	      1.02854908	     -0.19607399	      0.00000000	      0.50000000	      0.00000000	      0.25000000	     58.58922713	     -8.62201720	     -3.52197763	     71.90868398	      1.25504330	    -36.55820457	     -5.16307724	      0.00000000	      0.00000000	     81.59223587	     -3.27155900	      3.79799843	     73.34801825	      1.28016442	      5.72160119	      0.11499731	      0.00000000	      0.00000000	    -36.28156078	      8.56974914	    -18.98698970	     72.85612498	      5.63152228	     69.52737627	     28.68919450	     53.08805020	      0.00000000	      0.00000000	     38.85303053	    -51.79705196	     30.93692863	     91.36381774	     51.97191292	      0.00000000	      0.00000000
      5.02000000	    -34.58785611	     -1.31071546	      4.74526840	      0.29200100	      1.02814922	     -0.19675536	      0.00000000	      0.50000000	      0.00000000	      0.25000000	     59.80792445	     -8.53883457	     -2.85113546	     74.49208946	      1.30013223	    -35.79684229	     -5.24622277	      0.00000000	      0.00000000	     79.16042989	     -3.44690221	      3.45432805	     70.03805576	      1.22239467	      5.90092399	     -1.17865485	      0.00000000	      0.00000000	    -36.34605641	      8.22300459	    -18.50293178	     73.13292879	      5.09536153	     70.47069857	     29.15550711	     53.38985164	      0.00000000	      0.00000000	     38.58923882	    -50.60693537	     30.15290207	     91.02406841	     51.80988283	      0.00000000	      0.00000000
      5.02500000	    -34.41649353	     -1.21039113	      4.09799554	      0.29263409	      1.02732388	     -0.19738517	      0.00000000	      0.50000000	      0.00000000	      0.25000000	     60.96445740	     -8.38885511	     -2.32023404	     77.19658985	      1.34733466	    -34.76811292	     -5.57701859	      0.00000000	      0.00000000	     76.71154975	     -3.73945505	      3.13919299	     66.91605510	      1.16790548	      6.32408183	     -1.85574998	      0.00000000	      0.00000000	    -36.43782216	      8.01173344	    -17.91899720	     73.33081793	      4.69816530	     70.91463479	     29.36007138	     53.52843969	      0.00000000	      0.00000000	     38.17532002	    -50.01000389	     29.87296283	     90.87095946	     51.75177688	      0.00000000	      0.00000000
      5.03000000	    -34.33726295	     -1.05306391	      3.38312132	      0.29314147	      1.02619608	     -0.19823328	      0.00000000	      0.50000000	      0.00000000	      0.25000000	     62.16954071	     -8.19682846	     -1.71354035	     79.81997259	      1.39312133	    -33.34651924	     -5.77365177	      0.00000000	      0.00000000	     74.26393591	     -3.90474801	      2.89035621	     63.66549524	      1.11117251	      6.29228514	     -3.29309179	      0.00000000	      0.00000000	    -36.46562449	      7.73029574	    -17.13330062	     74.82651049	      2.34478926	     76.39848889	     32.18859466	     55.47547806	      0.00000000	      0.00000000	     37.26197127	    -48.34092696	     27.83903699	     90.60568750	     51.43665785	      0.00000000	      0.00000000
